<svg aria-hidden="true" style="position: absolute; width: 0; height: 0; overflow: hidden;" version="1.1" xmlns="http://www.w3.org/2000/svg" xmlns:xlink="http://www.w3.org/1999/xlink">
<defs>
<symbol id="icon-mark" viewBox="0 0 32 32">
<path d="M15.993 0c-7.071 0-12.827 5.756-12.827 12.827 0 0.805 0.074 1.617 0.228 2.408 0.007 0.047 0.034 0.188 0.087 0.429 0.195 0.865 0.483 1.717 0.859 2.529 1.382 3.254 4.421 8.252 11.089 13.605 0.168 0.134 0.369 0.201 0.57 0.201s0.403-0.067 0.57-0.201c6.662-5.353 9.707-10.351 11.089-13.605 0.376-0.812 0.664-1.657 0.859-2.529 0.054-0.242 0.081-0.382 0.087-0.429 0.148-0.792 0.228-1.603 0.228-2.408-0.013-7.071-5.769-12.827-12.84-12.827zM26.808 14.92c0 0.013-0.007 0.027-0.007 0.040-0.007 0.034-0.027 0.134-0.060 0.288 0 0.007 0 0.007 0 0.013-0.168 0.751-0.416 1.483-0.745 2.187-0.007 0.007-0.007 0.020-0.013 0.027-1.255 2.972-4.005 7.507-9.989 12.451-5.984-4.944-8.735-9.479-9.989-12.451-0.007-0.007-0.007-0.020-0.013-0.027-0.322-0.698-0.57-1.436-0.745-2.187 0-0.007 0-0.007 0-0.013-0.040-0.154-0.054-0.255-0.060-0.288 0-0.013-0.007-0.027-0.007-0.047-0.134-0.691-0.201-1.389-0.201-2.093 0-6.071 4.944-11.016 11.015-11.016s11.015 4.944 11.015 11.016c0 0.711-0.067 1.415-0.201 2.1z"></path>
<path d="M15.994 4.823c-4.488 0-8.144 3.656-8.144 8.144s3.656 8.144 8.144 8.144 8.144-3.656 8.144-8.144c0-4.488-3.656-8.144-8.144-8.144zM15.994 19.301c-3.495 0-6.333-2.844-6.333-6.333s2.844-6.333 6.333-6.333 6.333 2.844 6.333 6.333c0 3.488-2.838 6.333-6.333 6.333z"></path>
</symbol>
<symbol id="icon-price-rubl" viewBox="0 0 28 32">
<path fill="#1c62cd" style="fill: var(--color1, #1c62cd)" d="M4.76 15.854c0-4.941 0-9.882 0-15.152 4.983 0 9.495-0.198 14.006 0.066 4.714 0.263 8.283 4.612 8.148 9.355-0.135 4.611-3.771 8.63-8.485 8.828-3.367 0.198-6.667 0.066-10.168 0.066l-3.502-3.162zM8.261 3.732c0 4.216 0 8.169 0 12.253 0.875 0.066 3.502 0 4.175 0 1.886 0 4.512 0.066 5.993-0.132 3.165-0.329 5.455-3.030 5.387-6.061-0.067-3.162-2.492-5.863-5.791-6.061-3.165-0.132-6.397 0-9.764 0z"></path>
<path fill="#1c62cd" style="fill: var(--color1, #1c62cd)" d="M14.659 19.741c-1.010 0-2.088 0-3.165 0s-2.155 0-3.232 0v-1.318c1.077 0 2.155 0 3.232 0 2.357 0 4.646 0.066 6.936-0.066 4.31-0.263 7.744-3.821 7.811-8.235 0.135-4.546-3.3-8.432-7.542-8.696-3.098-0.198-6.195-0.132-9.427-0.066-1.279 0-2.559 0.066-3.838 0.066v14.493h-1.347v-15.811h0.673c1.549 0 3.030 0 4.512-0.066 3.3-0.066 6.397-0.066 9.562 0.066 4.983 0.264 8.889 4.809 8.821 10.014-0.135 5.073-4.108 9.223-9.091 9.487-1.347 0.132-2.626 0.132-3.906 0.132zM14.659 16.645c-0.673 0-1.414 0-2.222 0-0.269 0-0.808 0-1.414 0-1.077 0-2.29 0-2.828 0l-0.606-0.066v-13.571h0.673c1.077 0 2.088 0 3.098 0 2.29 0 4.512-0.066 6.734 0.066 3.569 0.198 6.397 3.162 6.465 6.72 0.067 3.426-2.626 6.39-5.993 6.72-0.875 0.132-2.222 0.132-3.906 0.132zM12.168 15.327c0.135 0 0.202 0 0.269 0 2.828 0.066 4.781 0 5.926-0.066 2.694-0.264 4.849-2.635 4.781-5.402 0-2.899-2.29-5.27-5.185-5.402-2.155-0.132-4.31-0.066-6.599-0.066-0.808 0-1.616 0-2.424 0v10.936c0.606 0 1.414 0 2.088 0 0.471 0 0.875 0 1.145 0z"></path>
<path fill="#1c62cd" style="fill: var(--color1, #1c62cd)" d="M9.473 15.986h-7.744v3.096h7.744v-3.096z"></path>
<path fill="#1c62cd" style="fill: var(--color1, #1c62cd)" d="M10.080 19.675h-9.091v-4.414h9.091v4.414zM2.404 18.357h6.397v-1.779h-6.397v1.779z"></path>
<path fill="#1c62cd" style="fill: var(--color1, #1c62cd)" d="M15.736 22.113h-14.007v3.096h14.007v-3.096z"></path>
<path fill="#1c62cd" style="fill: var(--color1, #1c62cd)" d="M16.409 25.868h-15.353v-4.414h15.353v4.414zM2.402 24.55h12.66v-1.779h-12.66v1.779z"></path>
<path fill="#1c62cd" style="fill: var(--color1, #1c62cd)" d="M8.261 14.075h-3.502v17.26h3.502v-17.26z"></path>
<path fill="#1c62cd" style="fill: var(--color1, #1c62cd)" d="M8.935 31.994h-4.848v-18.578h4.848v18.578zM5.434 30.677h2.155v-15.943h-2.155v15.943z"></path>
</symbol>
<symbol id="icon-price-rubl-old" viewBox="0 0 26 32">
<path fill="#c4c4c4" style="fill: var(--color2, #c4c4c4)" d="M10.084 18.444h-2.456v1.6h7.174v4.124h-7.174v5.724h-4.654v-5.724h-2.91v-4.124h2.91v-1.662h-2.974v-4.124h2.974v-14.156h0.646c1.487 0 2.909 0 4.331-0.062 3.168-0.062 6.141-0.062 9.179 0.062 4.784 0.246 8.533 4.493 8.468 9.356-0.129 4.739-3.943 8.617-8.727 8.863-1.293 0.123-2.521 0.123-3.749 0.123h-3.039zM7.628 14.258h1.099v0.062h2.263c2.715 0.062 4.59 0 5.689-0.062 2.586-0.246 4.654-2.462 4.59-5.047 0-2.708-2.198-4.924-4.978-5.047-1.546-0.092-3.091-0.081-4.691-0.069-0.541 0.004-1.089 0.008-1.644 0.008h-2.327v10.156z"></path>
<path fill="#fff" style="fill: var(--color3, #fff)" d="M16.872 18.321l-0.041-0.8-0.035 0.003 0.076 0.796zM25.599 9.458l0.8 0.022 0-0.011-0.8-0.011zM17.131 0.102l0.041-0.799-0.009-0-0.032 0.799zM7.951 0.040l-0.016-0.8-0.019 0.001 0.035 0.799zM2.974 0.102v-0.8h-0.8v0.8h0.8zM2.974 14.258v0.8h0.8v-0.8h-0.8zM0 14.258v-0.8h-0.8v0.8h0.8zM0 18.382h-0.8v0.8h0.8v-0.8zM2.974 18.382h0.8v-0.8h-0.8v0.8zM2.974 20.044v0.8h0.8v-0.8h-0.8zM0.064 20.044v-0.8h-0.8v0.8h0.8zM0.064 24.168h-0.8v0.8h0.8v-0.8zM2.974 24.168h0.8v-0.8h-0.8v0.8zM2.974 29.892h-0.8v0.8h0.8v-0.8zM7.628 29.892v0.8h0.8v-0.8h-0.8zM7.628 24.168v-0.8h-0.8v0.8h0.8zM14.802 24.168v0.8h0.8v-0.8h-0.8zM14.802 20.044h0.8v-0.8h-0.8v0.8zM7.628 20.044h-0.8v0.8h0.8v-0.8zM7.628 18.444v-0.8h-0.8v0.8h0.8zM8.727 14.258h0.8v-0.8h-0.8v0.8zM7.628 14.258h-0.8v0.8h0.8v-0.8zM8.727 14.32h-0.8v0.8h0.8v-0.8zM10.989 14.32l0.018-0.8h-0.018v0.8zM16.678 14.258l0.045 0.799 0.031-0.003-0.076-0.796zM21.268 9.211h-0.8l0 0.020 0.8-0.020zM16.29 4.164l-0.048 0.799 0.012 0.001 0.035-0.799zM11.6 4.095v0zM7.628 4.103v-0.8h-0.8v0.8h0.8zM13.123 17.644h-3.038v1.6h3.038v-1.6zM13.123 17.644h-0v1.6h0v-1.6zM16.796 17.524c-1.249 0.119-2.44 0.119-3.673 0.119v1.6c1.223 0 2.488 0.001 3.825-0.127l-0.152-1.593zM24.799 9.436c-0.118 4.316-3.596 7.861-7.968 8.086l0.082 1.598c5.194-0.267 9.345-4.478 9.485-9.64l-1.599-0.044zM17.089 0.901c4.323 0.222 7.769 4.082 7.709 8.546l1.6 0.021c0.070-5.261-3.983-9.895-9.227-10.165l-0.082 1.598zM7.967 0.84c3.158-0.061 6.114-0.061 9.131 0.061l0.065-1.599c-3.059-0.124-6.050-0.124-9.227-0.062l0.031 1.6zM3.62 0.902c1.484 0 2.923 0 4.366-0.062l-0.069-1.599c-1.402 0.061-2.807 0.061-4.296 0.061v1.6zM2.974 0.902h0.646v-1.6h-0.646v1.6zM3.774 12.535v-12.433h-1.6v12.433h1.6zM3.774 14.258v-1.723h-1.6v1.723h1.6zM0 15.058h2.974v-1.6h-2.974v1.6zM0.8 18.382v-4.124h-1.6v4.124h1.6zM2.974 17.582h-2.974v1.6h2.974v-1.6zM3.774 20.044v-1.662h-1.6v1.662h1.6zM0.064 20.844h2.91v-1.6h-2.91v1.6zM0.864 24.168v-4.124h-1.6v4.124h1.6zM2.974 23.368h-2.91v1.6h2.91v-1.6zM3.774 29.892v-5.724h-1.6v5.724h1.6zM7.628 29.092h-4.654v1.6h4.654v-1.6zM6.828 24.168v5.724h1.6v-5.724h-1.6zM14.802 23.368h-7.174v1.6h7.174v-1.6zM14.002 20.044v4.124h1.6v-4.124h-1.6zM7.628 20.844h7.174v-1.6h-7.174v1.6zM6.828 18.444v1.6h1.6v-1.6h-1.6zM10.084 17.644h-2.456v1.6h2.456v-1.6zM8.727 13.458h-1.099v1.6h1.099v-1.6zM9.527 14.32v-0.062h-1.6v0.062h1.6zM9.632 13.52h-0.905v1.6h0.905v-1.6zM10.731 13.52h-1.099v1.6h1.099v-1.6zM10.989 13.52h-0.259v1.6h0.259v-1.6zM16.633 13.46c-1.078 0.060-2.931 0.122-5.626 0.060l-0.036 1.6c2.736 0.062 4.631 0 5.751-0.063l-0.089-1.598zM20.468 9.231c0.054 2.141-1.674 4.022-3.866 4.231l0.152 1.593c2.98-0.284 5.389-2.835 5.314-5.864l-1.599 0.040zM16.255 4.964c2.376 0.105 4.213 1.991 4.213 4.248h1.6c0-3.16-2.559-5.705-5.742-5.846l-0.071 1.598zM11.605 4.895c1.604-0.012 3.123-0.022 4.638 0.068l0.095-1.597c-1.577-0.094-3.149-0.082-4.744-0.071l0.011 1.6zM9.955 4.903c0.559 0 1.109-0.004 1.65-0.008l-0.011-1.6c-0.542 0.004-1.086 0.008-1.639 0.008v1.6zM7.628 4.903h2.327v-1.6h-2.327v1.6zM8.428 12.535v-8.432h-1.6v8.432h1.6zM6.828 12.535v1.723h1.6v-1.723h-1.6z"></path>
</symbol>
<symbol id="icon-arrow-left" viewBox="0 0 18 32">
<path d="M2.171 15.661l14.317-14.146c0.352-0.348 0.352-0.906 0-1.254s-0.917-0.348-1.269 0l-14.955 14.776c-0.352 0.348-0.352 0.906 0 1.254l14.955 14.77c0.173 0.171 0.405 0.263 0.631 0.263s0.458-0.085 0.631-0.263c0.352-0.348 0.352-0.906 0-1.254l-14.31-14.146z"></path>
</symbol>
<symbol id="icon-arrow-right" viewBox="0 0 18 32">
<path d="M14.581 15.662l-14.317 14.146c-0.352 0.348-0.352 0.906 0 1.254s0.917 0.348 1.269 0l14.955-14.776c0.352-0.348 0.352-0.906 0-1.254l-14.955-14.77c-0.173-0.171-0.405-0.263-0.631-0.263s-0.458 0.085-0.631 0.263c-0.352 0.348-0.352 0.906 0 1.254l14.31 14.146z"></path>
</symbol>
<symbol id="icon-basket" viewBox="0 0 42 32">
<path d="M41.738 0l-1.292 3.478h-3.355l-6.042 20.87h-23.024l-8.026-19.13h29.238l-0.981 3.478h-23.026l5.108 12.174h18.136l5.969-20.87h7.296zM14.781 26.087c-1.44 0-2.609 1.169-2.609 2.609 0 1.442 1.169 2.609 2.609 2.609s2.609-1.167 2.609-2.609c0-1.44-1.169-2.609-2.609-2.609zM26.781 13.913l-3.304 12.174c-1.44 0-2.609 1.167-2.609 2.609s1.169 2.609 2.609 2.609c1.44 0 2.609-1.167 2.609-2.609 0-1.44-1.169-2.609-2.609-2.609l3.304-12.174z"></path>
</symbol>
<symbol id="icon-facebook" viewBox="0 0 32 32">
<path d="M18.58 31.792c-0.133 0.022-0.267 0.042-0.401 0.060 0.134-0.018 0.268-0.038 0.401-0.060z"></path>
<path d="M18.9 31.737c-0.064 0.012-0.127 0.023-0.191 0.034 0.064-0.011 0.127-0.022 0.191-0.034z"></path>
<path d="M17.821 31.896c-0.156 0.018-0.313 0.033-0.471 0.046 0.157-0.013 0.314-0.029 0.471-0.046z"></path>
<path d="M18.128 31.859c-0.075 0.010-0.15 0.019-0.226 0.028 0.075-0.009 0.151-0.018 0.226-0.028z"></path>
<path d="M19.336 31.651c-0.056 0.012-0.113 0.024-0.169 0.035 0.056-0.012 0.113-0.023 0.169-0.035z"></path>
<path d="M20.416 31.382c-0.045 0.013-0.091 0.025-0.136 0.038 0.045-0.013 0.091-0.025 0.136-0.038z"></path>
<path d="M20.090 31.471c-0.049 0.013-0.099 0.026-0.148 0.039 0.050-0.012 0.099-0.025 0.148-0.039z"></path>
<path d="M19.662 31.578c-0.052 0.012-0.105 0.024-0.158 0.035 0.053-0.012 0.105-0.023 0.158-0.035z"></path>
<path d="M17.346 31.943c-0.084 0.007-0.168 0.013-0.253 0.019 0.084-0.006 0.169-0.012 0.253-0.019z"></path>
<path d="M32 16c0-8.835-7.165-16-16-16s-16 7.165-16 16c0 8.835 7.165 16 16 16 0.094 0 0.188-0.002 0.281-0.004v-12.455h-3.438v-4.006h3.438v-2.948c0-3.419 2.087-5.28 5.137-5.28 1.46 0 2.716 0.109 3.082 0.157v3.573h-2.103c-1.659 0-1.98 0.789-1.98 1.945v2.552h3.967l-0.517 4.006h-3.45v11.841c6.688-1.917 11.583-8.079 11.583-15.382z"></path>
<path d="M17.057 31.964c-0.166 0.011-0.334 0.019-0.501 0.025 0.168-0.006 0.335-0.014 0.501-0.025z"></path>
<path d="M16.547 31.99c-0.088 0.003-0.177 0.005-0.266 0.006 0.089-0.001 0.177-0.004 0.266-0.006z"></path>
</symbol>
<symbol id="icon-heart" viewBox="0 0 35 32">
<path d="M17.455 11.969c0.34-1.629 2.25-9.060 7.828-9.060 3.229 0 6.717 2.256 6.717 7.277 0 5.683-5.276 12.32-14.545 18.369-9.27-6.049-14.545-12.687-14.545-18.369 0-5.068 3.446-7.28 6.657-7.28 5.706 0 7.484 7.456 7.888 9.063zM0 10.186c0 5.917 4.451 13.791 17.455 21.814 13.004-8.023 17.455-15.897 17.455-21.814 0-11.581-14.033-13.132-17.455-5.436-3.401-7.654-17.455-6.211-17.455 5.436z"></path>
</symbol>
<symbol id="icon-instagram" viewBox="0 0 32 32">
<path d="M16.005 7.784c-4.537 0-8.211 3.677-8.211 8.211 0 4.537 3.677 8.211 8.211 8.211 4.537 0 8.211-3.677 8.211-8.211 0-4.537-3.677-8.211-8.211-8.211v0zM16.005 21.324c-2.945 0-5.329-2.385-5.329-5.329s2.385-5.329 5.329-5.329c2.944 0 5.329 2.385 5.329 5.329 0.001 2.944-2.384 5.329-5.329 5.329v0z"></path>
<path d="M22.597 0.102c-2.944-0.137-10.236-0.131-13.183 0-2.589 0.121-4.873 0.747-6.715 2.588-3.077 3.077-2.684 7.224-2.684 13.305 0 6.224-0.347 10.275 2.684 13.305 3.089 3.088 7.296 2.684 13.305 2.684 6.165 0 8.293 0.004 10.473-0.84 2.964-1.151 5.201-3.8 5.42-8.559 0.139-2.945 0.131-10.236 0-13.183-0.264-5.617-3.279-9.024-9.301-9.301v0zM27.257 27.265c-2.017 2.017-4.816 1.837-11.291 1.837-6.667 0-9.34 0.099-11.291-1.857-2.247-2.236-1.84-5.827-1.84-11.271 0-7.367-0.756-12.672 6.637-13.051 1.699-0.060 2.199-0.080 6.475-0.080l0.060 0.040c7.105 0 12.68-0.744 13.015 6.648 0.076 1.687 0.093 2.193 0.093 6.463-0.001 6.589 0.124 9.279-1.859 11.271v0z"></path>
<path d="M24.542 9.379c1.060 0 1.919-0.859 1.919-1.919s-0.859-1.919-1.919-1.919c-1.060 0-1.919 0.859-1.919 1.919s0.859 1.919 1.919 1.919z"></path>
</symbol>
<symbol id="icon-logo" viewBox="0 0 34 32">
<path d="M0.379 29.474c-0.028 0-0.042-0.014-0.042-0.042l0.017-5.785c0-0.022 0.011-0.034 0.034-0.034l1.575-0.008c0.309-0.006 0.589 0.067 0.842 0.219 0.258 0.152 0.463 0.357 0.615 0.615 0.152 0.253 0.227 0.533 0.227 0.842v2.417c0 0.326-0.079 0.623-0.236 0.893-0.157 0.264-0.368 0.474-0.632 0.632s-0.561 0.239-0.893 0.244l-1.507 0.008zM1.364 28.438h0.522c0.208 0 0.382-0.073 0.522-0.219 0.146-0.146 0.219-0.32 0.219-0.522v-2.425c0-0.18-0.067-0.334-0.202-0.463-0.129-0.135-0.284-0.199-0.463-0.194l-0.589 0.008-0.008 3.815zM4.343 29.474c-0.022 0-0.034-0.014-0.034-0.042l0.017-5.785c0-0.022 0.011-0.034 0.034-0.034h1.701c0.303 0 0.581 0.076 0.834 0.227 0.258 0.146 0.463 0.345 0.615 0.598 0.152 0.247 0.227 0.528 0.227 0.842 0 0.208-0.031 0.396-0.093 0.564-0.062 0.163-0.135 0.303-0.219 0.421-0.084 0.112-0.16 0.197-0.227 0.253 0.303 0.337 0.455 0.733 0.455 1.187l0.008 1.726c0 0.028-0.014 0.042-0.042 0.042h-0.952c-0.022 0-0.034-0.008-0.034-0.025v-1.743c0-0.202-0.073-0.376-0.219-0.522-0.14-0.152-0.314-0.227-0.522-0.227h-0.556l-0.008 2.476c0 0.028-0.011 0.042-0.034 0.042h-0.952zM5.336 25.945h0.724c0.174 0 0.328-0.065 0.463-0.194s0.202-0.286 0.202-0.472c0-0.18-0.067-0.334-0.202-0.463-0.129-0.129-0.284-0.194-0.463-0.194h-0.724v1.322zM8.413 29.474c-0.028 0-0.042-0.014-0.042-0.042l0.008-5.785c0-0.022 0.011-0.034 0.034-0.034h0.943c0.022 0 0.034 0.011 0.034 0.034l0.008 5.785c0 0.028-0.011 0.042-0.034 0.042h-0.952zM11.083 29.474c-0.022 0-0.037-0.014-0.042-0.042l-1.162-5.785c-0.006-0.022 0.006-0.034 0.034-0.034h0.952c0.022 0 0.036 0.011 0.042 0.034l0.691 3.857 0.674-3.857c0.006-0.022 0.020-0.034 0.042-0.034h0.943c0.028 0 0.039 0.011 0.034 0.034l-1.145 5.785c-0.006 0.028-0.020 0.042-0.042 0.042h-1.019zM13.816 29.474c-0.022 0-0.034-0.014-0.034-0.042l0.008-5.785c0-0.022 0.011-0.034 0.034-0.034h2.703c0.022 0 0.034 0.014 0.034 0.042v0.943c0 0.022-0.011 0.034-0.034 0.034h-1.726v1.314h1.726c0.022 0 0.034 0.011 0.034 0.034l0.008 0.952c0 0.022-0.011 0.034-0.034 0.034h-1.735v1.474h1.735c0.022 0 0.034 0.014 0.034 0.042v0.96c0 0.022-0.011 0.034-0.034 0.034h-2.72zM18.602 29.474c-0.022 0-0.034-0.014-0.034-0.042l0.017-5.785c0-0.022 0.011-0.034 0.034-0.034h1.027c0.022 0 0.042 0.011 0.059 0.034l0.766 1.112 0.766-1.112c0.017-0.022 0.036-0.034 0.059-0.034h1.036c0.022 0 0.034 0.011 0.034 0.034l0.017 5.785c0 0.028-0.011 0.042-0.034 0.042h-0.952c-0.022 0-0.034-0.014-0.034-0.042l-0.008-4.295-0.884 1.28-0.876-1.28-0.008 4.295c0 0.028-0.011 0.042-0.034 0.042h-0.952zM24.65 29.558c-0.303 0-0.581-0.076-0.834-0.227-0.247-0.157-0.446-0.362-0.598-0.615-0.152-0.258-0.227-0.542-0.227-0.851l0.008-2.669c0-0.309 0.073-0.589 0.219-0.842 0.152-0.253 0.354-0.455 0.606-0.606s0.528-0.227 0.825-0.227c0.303 0 0.578 0.076 0.825 0.227s0.444 0.354 0.589 0.606c0.152 0.253 0.227 0.533 0.227 0.842l0.008 2.669c0 0.309-0.076 0.592-0.227 0.851-0.146 0.253-0.345 0.458-0.598 0.615-0.247 0.152-0.522 0.227-0.825 0.227zM24.65 28.539c0.168 0 0.314-0.067 0.438-0.202 0.129-0.14 0.194-0.298 0.194-0.472l-0.008-2.669c0-0.185-0.059-0.342-0.177-0.472s-0.267-0.194-0.446-0.194c-0.174 0-0.323 0.065-0.446 0.194-0.124 0.123-0.185 0.281-0.185 0.472v2.669c0 0.185 0.062 0.345 0.185 0.48 0.123 0.129 0.272 0.194 0.446 0.194zM27.676 29.474c-0.022 0-0.034-0.014-0.034-0.042v-4.8h-1.095c-0.028 0-0.042-0.014-0.042-0.042l0.008-0.943c0-0.022 0.011-0.034 0.034-0.034h3.2c0.028 0 0.042 0.011 0.042 0.034v0.943c0 0.028-0.011 0.042-0.034 0.042h-1.103l0.008 4.8c0 0.028-0.011 0.042-0.034 0.042h-0.952zM31.574 29.558c-0.303 0-0.581-0.076-0.834-0.227-0.247-0.157-0.446-0.362-0.598-0.615-0.152-0.258-0.227-0.542-0.227-0.851l0.008-2.669c0-0.309 0.073-0.589 0.219-0.842 0.152-0.253 0.354-0.455 0.606-0.606s0.528-0.227 0.825-0.227c0.303 0 0.578 0.076 0.825 0.227s0.444 0.354 0.589 0.606c0.152 0.253 0.227 0.533 0.227 0.842l0.008 2.669c0 0.309-0.076 0.592-0.227 0.851-0.146 0.253-0.345 0.458-0.598 0.615-0.247 0.152-0.522 0.227-0.825 0.227zM31.574 28.539c0.168 0 0.314-0.067 0.438-0.202 0.129-0.14 0.194-0.298 0.194-0.472l-0.008-2.669c0-0.185-0.059-0.342-0.177-0.472s-0.267-0.194-0.446-0.194c-0.174 0-0.323 0.065-0.446 0.194-0.124 0.123-0.185 0.281-0.185 0.472v2.669c0 0.185 0.062 0.345 0.185 0.48 0.123 0.129 0.272 0.194 0.446 0.194z"></path>
<path d="M24.861 3.35c-0.296-0.296-0.761-0.34-1.107-0.104-1.304 0.889-7.847 5.36-8.55 6.063-1.020 1.020-1.020 2.679 0 3.698 0.51 0.51 1.18 0.765 1.849 0.765s1.339-0.255 1.849-0.765c0.703-0.703 5.174-7.245 6.063-8.55 0.236-0.346 0.192-0.811-0.104-1.107zM17.669 11.774c-0.34 0.34-0.893 0.34-1.233 0s-0.34-0.893-0-1.233c0.273-0.27 2.131-1.595 4.416-3.183-1.589 2.285-2.913 4.143-3.183 4.416z"></path>
<path d="M9.915 15.212l-1.076 0.525c-0.787-1.405-1.2-2.974-1.2-4.579 0-1.176 0.217-2.303 0.613-3.342l1.233 0.591c0.122 0.058 0.25 0.086 0.376 0.086 0.325 0 0.637-0.182 0.787-0.495 0.208-0.434 0.025-0.955-0.409-1.163l-1.217-0.584c1.513-2.468 4.131-4.188 7.16-4.468v1.311c0 0.481 0.39 0.872 0.872 0.872s0.872-0.39 0.872-0.872v-1.312c1.039 0.095 2.043 0.359 2.997 0.79 0.439 0.198 0.955 0.003 1.153-0.436s0.003-0.955-0.436-1.153c-1.446-0.653-2.989-0.983-4.586-0.983-2.98 0-5.782 1.161-7.89 3.268s-3.268 4.909-3.268 7.89c0 2.202 0.654 4.344 1.89 6.194 0.167 0.249 0.442 0.387 0.725 0.387 0.129 0 0.259-0.029 0.382-0.088l1.787-0.872c0.433-0.211 0.612-0.733 0.401-1.166s-0.733-0.612-1.166-0.401z"></path>
<path d="M27.227 6.572c-0.198-0.439-0.714-0.634-1.153-0.436s-0.634 0.714-0.436 1.153c0.55 1.219 0.829 2.52 0.829 3.869 0 1.608-0.414 3.179-1.204 4.586l-1.123-0.535c-0.435-0.207-0.955-0.022-1.162 0.412s-0.022 0.955 0.412 1.162l1.831 0.872c0.12 0.057 0.248 0.085 0.374 0.085 0.283 0 0.559-0.138 0.725-0.387 1.237-1.85 1.89-3.992 1.89-6.194 0-1.598-0.331-3.141-0.983-4.586z"></path>
</symbol>
<symbol id="icon-user" viewBox="0 0 32 32">
<path d="M27.763 24.128c-4.585-1.059-8.853-1.987-6.787-5.891 6.293-11.883 1.668-18.237-4.976-18.237-6.776 0-11.285 6.599-4.976 18.237 2.129 3.927-2.3 4.855-6.787 5.891-4.097 0.947-4.251 2.981-4.237 6.539l0.005 1.333h31.987l0.005-1.292c0.016-3.584-0.123-5.629-4.235-6.58v0z"></path>
</symbol>
<symbol id="icon-vk" viewBox="0 0 32 32">
<path d="M26.553 17.371c-0.517-0.653-0.369-0.944 0-1.528 0.007-0.007 4.277-5.908 4.717-7.909l0.003-0.001c0.219-0.729 0-1.265-1.057-1.265h-3.499c-0.891 0-1.301 0.46-1.521 0.975 0 0-1.781 4.264-4.301 7.028-0.813 0.799-1.189 1.055-1.633 1.055-0.219 0-0.559-0.256-0.559-0.985v-6.807c0-0.875-0.249-1.265-0.987-1.265h-5.501c-0.559 0-0.891 0.408-0.891 0.788 0 0.829 1.26 1.020 1.391 3.353v5.063c0 1.109-0.201 1.313-0.648 1.313-1.189 0-4.076-4.281-5.787-9.181-0.345-0.951-0.683-1.335-1.58-1.335h-3.5c-0.999 0-1.2 0.46-1.2 0.975 0 0.909 1.189 5.431 5.531 11.404 2.893 4.077 6.968 6.287 10.675 6.287 2.228 0 2.5-0.491 2.5-1.335 0-3.896-0.201-4.264 0.915-4.264 0.517 0 1.408 0.256 3.488 2.223 2.377 2.332 2.768 3.376 4.099 3.376h3.499c0.997 0 1.503-0.491 1.212-1.459-0.665-2.036-5.161-6.224-5.364-6.504v0z"></path>
</symbol>
<symbol id="icon-youtube" viewBox="0 0 32 32">
<path d="M14.007 18.998l5.205-2.998-5.205-2.998v5.995z"></path>
<path d="M16 0c-8.835 0-16 7.165-16 16s7.165 16 16 16c8.835 0 16-7.165 16-16s-7.165-16-16-16zM25.998 16.016c0 0 0 3.245-0.412 4.81-0.231 0.856-0.906 1.532-1.762 1.762-1.565 0.412-7.823 0.412-7.823 0.412s-6.242 0-7.823-0.428c-0.856-0.23-1.532-0.906-1.762-1.762-0.412-1.548-0.412-4.809-0.412-4.809s0-3.245 0.412-4.809c0.23-0.857 0.922-1.548 1.762-1.779 1.565-0.412 7.823-0.412 7.823-0.412s6.259 0 7.823 0.428c0.856 0.23 1.532 0.906 1.762 1.762 0.428 1.565 0.412 4.826 0.412 4.826v0z"></path>
</symbol>
<symbol id="icon-back" viewBox="0 0 17 32">
<path d="M0.666 27.613c-0.855 0.793-0.888 2.111-0.073 2.944s2.168 0.865 3.022 0.071c0 0 13.191-12.433 13.227-12.469 0.843-0.859 0.812-2.221-0.070-3.043l-13.157-12.394c-0.853-0.795-2.207-0.765-3.023 0.066s-0.785 2.15 0.068 2.944l10.32 9.889c0.597 0.573 0.598 1.527 0 2.1l-10.315 9.889z"></path>
</symbol>
<symbol id="icon-grid" viewBox="0 0 32 32">
<path d="M18.5 2h12c0.828 0 1.5 0.672 1.5 1.5v10c0 0.828-0.672 1.5-1.5 1.5h-12c-0.828 0-1.5-0.672-1.5-1.5v-10c0-0.828 0.672-1.5 1.5-1.5zM13.5 2h-12c-0.828 0-1.5 0.672-1.5 1.5v10c0 0.828 0.672 1.5 1.5 1.5h12c0.828 0 1.5-0.672 1.5-1.5v-10c0-0.828-0.672-1.5-1.5-1.5zM0 18.5v10c0 0.828 0.672 1.5 1.5 1.5h12c0.828 0 1.5-0.672 1.5-1.5v-10c0-0.828-0.672-1.5-1.5-1.5h-12c-0.828 0-1.5 0.672-1.5 1.5zM18.5 30h12c0.828 0 1.5-0.672 1.5-1.5v-10c0-0.828-0.672-1.5-1.5-1.5h-12c-0.828 0-1.5 0.672-1.5 1.5v10c0 0.828 0.672 1.5 1.5 1.5z"></path>
</symbol>
<symbol id="icon-list" viewBox="0 0 42 32">
<path d="M12.632 0h26.947c1.395 0 2.526 1.131 2.526 2.526s-1.131 2.526-2.526 2.526h-26.947c-1.395 0-2.526-1.131-2.526-2.526s1.131-2.526 2.526-2.526z"></path>
<path d="M12.632 13.474h26.947c1.395 0 2.526 1.131 2.526 2.526s-1.131 2.526-2.526 2.526h-26.947c-1.395 0-2.526-1.131-2.526-2.526s1.131-2.526 2.526-2.526z"></path>
<path d="M12.632 26.947h26.947c1.395 0 2.526 1.131 2.526 2.526s-1.131 2.526-2.526 2.526h-26.947c-1.395 0-2.526-1.131-2.526-2.526s1.131-2.526 2.526-2.526z"></path>
<path d="M2.526 0c1.395 0 2.526 1.131 2.526 2.526s-1.131 2.526-2.526 2.526c-1.395 0-2.526-1.131-2.526-2.526s1.131-2.526 2.526-2.526z"></path>
<path d="M2.526 13.474c1.395 0 2.526 1.131 2.526 2.526s-1.131 2.526-2.526 2.526c-1.395 0-2.526-1.131-2.526-2.526s1.131-2.526 2.526-2.526z"></path>
<path d="M2.526 26.947c1.395 0 2.526 1.131 2.526 2.526s-1.131 2.526-2.526 2.526c-1.395 0-2.526-1.131-2.526-2.526s1.131-2.526 2.526-2.526z"></path>
</symbol>
<symbol id="icon-drop-down" viewBox="0 0 48 32">
<path d="M42.4 0l-18.4 18.4-18.4-18.4-5.6 5.6 24 24 24-24-5.6-5.6z"></path>
</symbol>
</defs>
</svg>
